<?xml version="1.0" encoding="UTF-8"?><svg id="Layer_2" xmlns="http://www.w3.org/2000/svg" viewBox="0 0 399.62 72.44"><defs><style>.cls-1{fill:#f26539;}</style></defs><g id="Layer_1-2"><path class="cls-1" d="M386.53,49.37V14.27h-9.3v38.44c0,4.5,3.62,8.15,8.09,8.15h8.71v-8.04h-4.07c-1.89,0-3.43-1.54-3.43-3.45Z"/><path class="cls-1" d="M131.65,43.22c0-10.54,7.46-18.67,18.33-18.67s18.33,8.13,18.33,18.67-7.46,18.67-18.33,18.67-18.33-8.13-18.33-18.67ZM158.88,43.22c0-6.89-3.22-11.57-8.89-11.57s-8.89,4.69-8.89,11.57,3.15,11.51,8.89,11.51,8.89-4.62,8.89-11.51Z"/><path class="cls-1" d="M182.55,48.53h2.35s.75-3.79,1.51-6.68l4.38-16.33h7.94l4.58,16.33c.75,2.96,1.64,6.68,1.64,6.68h2.35s.82-3.72,1.57-6.61l4.45-16.4h9.03l-10.47,35.35h-10.7l-4.65-17.36c-.75-2.83-1.57-6.13-1.57-6.13h-.14s-.89,3.31-1.64,6.13l-4.79,17.36h-10.63l-10.26-35.35h9.24l4.24,16.4c.75,2.89,1.57,6.61,1.57,6.61h0Z"/><path class="cls-1" d="M221.52,43.15c0-10.47,7.04-18.6,17.31-18.6,11.29,0,17.31,8.68,17.31,21.29h-25.45c.68,5.44,3.69,8.82,8.96,8.82,3.62,0,5.75-1.65,6.77-4.34h9.17c-1.3,6.27-6.84,11.57-15.87,11.57-11.63,0-18.2-8.2-18.2-18.74ZM230.82,39.36h15.6c-.27-4.48-3.21-7.58-7.46-7.58-4.92,0-7.32,2.96-8.14,7.58Z"/><path class="cls-1" d="M268.04,31.16h.2c2.12-4,4.52-6.06,8.62-6.06,1.02,0,1.64.07,2.19.28v8.2h-.2c-6.09-.62-10.47,2.62-10.47,10.06v17.23h-9.3V25.51h8.96v5.65Z"/><path class="cls-1" d="M281.72,25.51h8.96v4.41h.2c2.26-3.1,5.54-5.37,10.33-5.37,9.3,0,15.26,7.65,15.26,18.67s-6.16,18.67-15.19,18.67c-4.92,0-8.14-2-10.13-5.03h-.14v15.57h-9.3V25.52h0ZM307.03,43.5c0-6.68-2.32-11.37-8.07-11.37s-8.14,5.03-8.14,11.37,2.94,10.61,8.48,10.61c4.72,0,7.73-3.93,7.73-10.61Z"/><path class="cls-1" d="M335.47,43.22c0-10.54,7.46-18.67,18.33-18.67s18.33,8.13,18.33,18.67-7.46,18.67-18.33,18.67-18.33-8.13-18.33-18.67ZM362.7,43.22c0-6.89-3.21-11.57-8.89-11.57s-8.89,4.69-8.89,11.57,3.15,11.51,8.89,11.51,8.89-4.62,8.89-11.51Z"/><path class="cls-1" d="M328.85,49.36V11.6h-9.3v41.11c0,4.5,3.62,8.15,8.09,8.15h8.72v-8.04h-4.08c-1.89,0-3.43-1.54-3.43-3.45Z"/><path class="cls-1" d="M124.15,49.36V11.6h-9.3v41.11c0,4.5,3.62,8.15,8.09,8.15h8.72v-8.04h-4.08c-1.89,0-3.43-1.54-3.43-3.45Z"/><path class="cls-1" d="M384.97,25.51h-12.63v6.13h12.63v-6.13Z"/><path class="cls-1" d="M394.03,33.95c3.08,0,5.58-2.52,5.58-5.62s-2.5-5.62-5.58-5.62-5.58,2.52-5.58,5.62,2.5,5.62,5.58,5.62Z"/><path class="cls-1" d="M76.69,11.6h35.03v8.47h-25.11v11.85h21.28v8.54h-21.28v20.39h-9.92V11.6Z"/><path class="cls-1" d="M47.92,32.7v-5.51c0-1.19.96-2.16,2.16-2.16h6.66c1.74,0,3.15-1.41,3.15-3.15v-7.77c0-1.74-1.43-3.17-3.17-3.17h-6.6c-1.19,0-2.16-.97-2.16-2.16V3.17c0-1.74-1.43-3.17-3.17-3.17h-8.47c-1.74,0-3.15,1.42-3.15,3.15v5.63c0,1.19-.96,2.16-2.16,2.16h-6.65c-1.74,0-3.15,1.41-3.15,3.15v7.78c0,1.74,1.42,3.15,3.15,3.15h6.66c1.19,0,2.15.96,2.15,2.15v3.62c0,1.19-.96,2.16-2.16,2.16h-6.53l-5.01-5.02c-1.35-1.35-3.18-2.11-5.09-2.11H2.79c-1.1,0-2.11.66-2.55,1.68-.44,1.02-.25,2.21.5,3.03l5.17,5.67c1.31,1.44,3.17,2.26,5.12,2.26h1.39c1.29,0,2.53-.51,3.45-1.42l1.71-1.69c.65-.65,1.71-.64,2.36.02l1.3,1.33v24.13s0,.02.02.02h14.74v-7.75l1.41-1.43c.65-.66,1.7-.66,2.35-.01l1.71,1.69c.92.91,2.16,1.42,3.46,1.42h11.26c1.1,0,2.19-.51,2.75-1.46.71-1.21.49-2.7-.47-3.65l-5.52-5.46c-1.33-1.32-3.13-2.06-5.01-2.06h-5.01c-1.9,0-3.73.76-5.07,2.1l-1.86,1.86v-8.09c0-1.19.96-2.16,2.16-2.16h-.01s6.63-.01,6.63-.01c1.74,0,3.15-1.41,3.15-3.15ZM40.54,23.72c-3.17,0-5.75-2.59-5.75-5.79s2.57-5.79,5.75-5.79,5.75,2.59,5.75,5.79-2.57,5.79-5.75,5.79Z"/></g></svg>