<svg width="196" height="20" viewBox="0 0 196 20" fill="none" xmlns="http://www.w3.org/2000/svg">
<path d="M0 19.5088V0.489258H11.9193V3.35267H3.42213V8.8467H10.9764V11.5472H3.42213V19.5088H0Z" fill="#2A2A55"/>
<path d="M18.9194 19.5031V0.495117H22.3183V16.628H30.9085V19.5031H18.9194Z" fill="#2A2A55"/>
<path d="M45.0318 19.8759C40.4457 19.8759 37.9082 16.4189 37.9082 9.99368C37.9082 3.5801 40.4457 0.123047 45.0318 0.123047C49.6063 0.123047 52.1438 3.5801 52.1438 9.99368C52.1438 16.4189 49.6063 19.8759 45.0318 19.8759ZM45.0318 17.0242C47.3249 17.0242 48.582 14.8824 48.582 9.99368C48.582 5.10492 47.3249 2.96318 45.0318 2.96318C42.7388 2.96318 41.4816 5.10492 41.4816 9.99368C41.4816 14.8824 42.7388 17.0242 45.0318 17.0242Z" fill="#2A2A55"/>
<path d="M61.7979 19.5031L59.144 0.495117H62.2985L63.346 10.4705C63.5556 12.5191 63.7418 14.3699 63.9397 16.4651H63.9746C64.2074 14.3815 64.4518 12.3329 64.6846 10.4821L65.7089 2.91622H69.1078L70.1321 10.4821C70.3649 12.3329 70.6093 14.3815 70.8421 16.4651H70.8771C71.0749 14.3699 71.2612 12.5191 71.4707 10.4705L72.5183 0.495117H75.6727L73.0188 19.5031H69.0147L68.002 12.1117C67.7925 10.4938 67.6179 8.9224 67.4433 7.09494H67.3734C67.1988 8.9224 67.0243 10.4938 66.8147 12.1117L65.8021 19.5031H61.7979Z" fill="#2A2A55"/>
<path d="M82.6724 19.5031V0.495117H94.58V3.34689H86.0945V8.36369H93.6488V11.1223H86.0945V16.6397H94.58V19.5031H82.6724Z" fill="#2A2A55"/>
<path d="M114.919 19.5031H111.218L107.924 11.9837H104.886V19.5031H101.58V0.495117H108.424C112.859 0.495117 114.407 2.62522 114.407 6.08227C114.407 8.70124 113.429 10.6684 111.148 11.5181L114.919 19.5031ZM104.886 3.26541V9.35308H108.18C110.298 9.35308 111.078 8.23565 111.078 6.14047C111.078 4.3712 110.391 3.26541 108.261 3.26541H104.886Z" fill="#2A2A55"/>
<path d="M121.919 19.5031V0.495117H128.531C133.14 0.495117 134.584 2.81146 134.584 6.30342C134.584 9.93507 132.966 12.3445 128.484 12.3445H125.248V19.5031H121.919ZM125.248 9.5626H128.321C130.44 9.5626 131.231 8.42189 131.231 6.26851C131.231 4.46432 130.533 3.33525 128.403 3.33525H125.248V9.5626Z" fill="#2A2A55"/>
<path d="M141.583 19.5031V0.495117H144.982V16.628H153.573V19.5031H141.583Z" fill="#2A2A55"/>
<path d="M167.696 19.8759C163.11 19.8759 160.573 16.4189 160.573 9.99368C160.573 3.5801 163.11 0.123047 167.696 0.123047C172.271 0.123047 174.808 3.5801 174.808 9.99368C174.808 16.4189 172.271 19.8759 167.696 19.8759ZM167.696 17.0242C169.989 17.0242 171.247 14.8824 171.247 9.99368C171.247 5.10492 169.989 2.96318 167.696 2.96318C165.403 2.96318 164.146 5.10492 164.146 9.99368C164.146 14.8824 165.403 17.0242 167.696 17.0242Z" fill="#2A2A55"/>
<path d="M195.346 0.495117V3.42837H190.294V19.5031H186.86V3.42837H181.809V0.495117H195.346Z" fill="#2A2A55"/>
</svg>
