<svg width="24" height="25" viewBox="0 0 24 25" fill="none" xmlns="http://www.w3.org/2000/svg">
<path d="M12.1094 2.32886H11.3594V6.08236C6.0552 6.29766 2 8.76706 2 11.8894V16.9675C2 20.2361 6.4404 22.7956 12.1094 22.7956C17.7784 22.7956 22.2198 20.236 22.2198 16.9675V8.15696C22.2198 4.88836 17.7784 2.32886 12.1094 2.32886ZM12.8594 3.84646C16.6934 4.02126 19.8985 5.52516 20.584 7.40696H14.7513C13.7064 7.40696 12.8594 6.55996 12.8594 5.51506V3.84646ZM11.3594 7.58106V12.4148H18.059C19.2843 12.4148 19.7212 14.0269 18.6687 14.6543C17.0767 15.6033 14.7064 16.2176 12.1094 16.2176C7.4424 16.2176 3.5 14.2352 3.5 11.8895C3.5 9.67076 7.0282 7.77966 11.3594 7.58106ZM12.1094 21.2957C7.4424 21.2957 3.5 19.3133 3.5 16.9676V14.9744C5.2639 16.6309 8.4221 17.7176 12.1094 17.7176C15.7967 17.7176 18.9556 16.6308 20.7198 14.9742V16.9676C20.7198 19.3133 16.7764 21.2957 12.1094 21.2957ZM19.7158 10.9148H13.8633C13.3089 10.9148 12.8594 10.4653 12.8594 9.91086C12.8594 9.35646 13.3089 8.90696 13.8633 8.90696H19.7158C20.2702 8.90696 20.7197 9.35646 20.7197 9.91086C20.7197 10.4653 20.2702 10.9148 19.7158 10.9148Z" fill="#3F303A"/>
</svg>
