<svg width="24" height="25" viewBox="0 0 24 25" fill="none" xmlns="http://www.w3.org/2000/svg">
<path d="M9.66504 16.1995H8.16504V22.2229H9.66504V16.1995Z" fill="#3F303A"/>
<path d="M5.75391 20.1995H4.25391V22.2229H5.75391V20.1995Z" fill="#3F303A"/>
<path d="M17.4854 13.1995H15.9854V22.2229H17.4854V13.1995Z" fill="#3F303A"/>
<path d="M13.5752 14.1995H12.0752V22.2229H13.5752V14.1995Z" fill="#3F303A"/>
<path d="M21.1061 9.63916L17.9681 4.60196L17.175 3.32886L15.9018 4.12206L10.8646 7.25996L11.6578 8.53306L13.1798 7.58486C14.0675 7.03186 15.1144 8.04586 14.5745 8.94166C13.6307 10.5073 12.0911 12.0465 9.6123 12.4596C3.1758 13.5324 2.0449 18.8273 2 19.0519L3.4697 19.3498C3.5088 19.1652 4.4697 14.8371 9.8584 13.9392C13.6717 13.3038 15.63 10.4492 16.5983 8.19566C16.9163 7.45546 17.9342 7.38446 18.3602 8.06826L19.8329 10.4324L21.1061 9.63916Z" fill="#3F303A"/>
</svg>
