<svg width="18" height="19" viewBox="0 0 18 19" fill="none" xmlns="http://www.w3.org/2000/svg">
<path d="M13.5799 9.15074L17.3071 4.81964L17.1413 4.51924C16.1095 2.64954 14.3322 1.30534 12.2572 0.800237C6.6168 -0.572663 1.5829 1.17884 0.1768 4.42804L0 4.83674L3.4466 9.25074C4.1211 10.1145 4.0107 11.386 3.1459 12.0593C1.714 13.1742 1.0426 14.4082 0.9932 14.5022L0.8125 14.846L0.9893 15.1927C1.0655 15.3411 2.9131 18.8294 8.522 18.8294C14.1309 18.8294 15.979 15.3401 16.0552 15.1907L16.232 14.845L16.0513 14.5012C16.0015 14.4058 15.3125 13.1353 13.8368 12.0074C12.9415 11.3232 12.8449 10.0048 13.5799 9.15074ZM10.4497 13.091C10.4497 14.3117 9.585 15.3049 8.522 15.3049C7.459 15.3049 6.5948 14.3117 6.5948 13.091C6.5948 12.6749 6.7 12.2816 6.8851 11.9371C6.8851 11.9371 7.3879 11.7453 8.522 11.7453C9.6561 11.7453 10.2342 12.0947 10.2342 12.0947C10.3701 12.4007 10.4497 12.7369 10.4497 13.091ZM7.814 1.84404C10.604 1.70534 13.9546 2.53594 15.4693 4.65604L10.479 10.4546C9.8791 10.3248 9.2307 10.2454 8.522 10.2454C7.7204 10.2454 6.9982 10.3494 6.3354 10.5122L1.749 4.63944C2.6894 3.03984 4.96 1.98124 7.814 1.84404ZM8.522 17.3293C5.6919 17.3293 4.0323 16.3246 3.154 15.514C2.7628 15.153 2.7413 14.5362 3.0974 14.1406C3.5584 13.6284 4.233 13.0247 5.1424 12.5512C5.1184 12.7294 5.0947 12.908 5.0947 13.0911C5.0947 15.139 6.6323 16.805 8.5219 16.805C10.4115 16.805 11.9496 15.139 11.9496 13.0911C11.9496 12.9078 11.9256 12.7291 11.9015 12.5508C12.8099 13.0235 13.484 13.6259 13.9449 14.1374C14.3016 14.5333 14.2796 15.1511 13.8875 15.512C13.0068 16.3225 11.3446 17.3293 8.522 17.3293Z" fill="#3F303A"/>
</svg>
