<svg width="24" height="25" viewBox="0 0 24 25" fill="none" xmlns="http://www.w3.org/2000/svg">
<path d="M22.2704 14.3348V2.47636H10.285V3.97636H18.961C19.9603 3.97636 20.7704 4.78646 20.7704 5.78576V12.8348H6.5038V9.03606C6.5038 8.47466 7.1315 8.14166 7.5963 8.45646L8.6219 9.15116L9.4637 7.90896L8.0013 6.91846C7.5844 6.63616 7.593 6.01916 8.0176 5.74856L9.5066 4.79956L8.7 3.53396L7.5799 4.24786C7.1139 4.54486 6.5037 4.21016 6.5037 3.65756V2.32886H5.0037V3.56866C5.0037 4.13006 4.376 4.46306 3.9112 4.14826L2.8846 3.45296L2.0429 4.69506L3.5053 5.68556C3.9222 5.96786 3.9136 6.58486 3.489 6.85546L2 7.80446L2.8066 9.07006L3.9276 8.35556C4.3936 8.05856 5.0038 8.39326 5.0038 8.94586V9.96686C5.0038 10.2571 4.8247 10.5172 4.5537 10.6208L2.0155 11.5906L5.6864 21.199L8.5432 20.1077L11.5829 23.6062L20.2304 16.0955L19.2187 14.9314L19.2147 14.9349L18.9855 14.3347L22.2704 14.3348ZM12.4519 18.6145L17.0762 16.8479L11.7314 21.491C10.9076 20.5421 11.278 19.0629 12.4519 18.6145ZM17.6444 15.0262L8.2419 18.6179C7.3084 18.9745 6.2626 18.5068 5.906 17.5733L3.9511 12.4559L5.0038 12.0537V14.3348H17.3804L17.6444 15.0262Z" fill="#3F303A"/>
</svg>
