<?xml version="1.0" encoding="UTF-8"?>
<svg xmlns="http://www.w3.org/2000/svg" version="1.1" viewBox="0 0 200 200">
  <defs>
    <style>
      .cls-1 {
        fill: #4d4dfa;
      }
    </style>
  </defs>
  <!-- Generator: Adobe Illustrator 28.6.0, SVG Export Plug-In . SVG Version: 1.2.0 Build 709)  -->
  <g>
    <g id="Layer_1">
      <path class="cls-1" d="M34.01,120.09h13.09c6.78,0,12.29,5.52,12.29,12.29v46.53h20.13v-46.53c0-17.88-14.55-32.42-32.42-32.42h-13.09v20.13Z"/>
      <path class="cls-1" d="M119.83,132.38v46.53h20.13v-46.53c0-6.78,5.52-12.29,12.29-12.29h13.74v-20.13h-13.74c-17.88,0-32.42,14.55-32.42,32.42Z"/>
      <path class="cls-1" d="M163.47,42.51c-1.35-2.73-2.87-5.35-4.55-7.86l-43.22,8.55-11.16-22.07c-.75-.05-8.34-.05-9.09,0l-11.16,22.07-43.22-8.55c-1.68,2.51-3.2,5.14-4.55,7.86l30.4,19.49-30.4,23.25c1.35,2.73,2.87,5.35,4.55,7.86l32-5.2c9.67-1.6,16.53,4.12,16.53,13.87l.33,24.89v52.25h20.13v-52.25l.33-24.89c0-9.75,6.85-15.47,16.53-13.87l32,5.2c1.68-2.51,3.2-5.14,4.55-7.86l-30.4-23.25,30.4-19.49ZM100,71.2c-11.7,0-21.18-4.09-21.18-9.12s9.48-9.12,21.18-9.12,21.18,4.09,21.18,9.12-9.48,9.12-21.18,9.12Z"/>
    </g>
  </g>
</svg>