<?xml version="1.0" encoding="UTF-8"?>
<svg id="Layer_1" xmlns="http://www.w3.org/2000/svg" version="1.1" viewBox="0 0 841.9 595.3">
  <!-- Generator: Adobe Illustrator 29.5.0, SVG Export Plug-In . SVG Version: 2.1.0 Build 137)  -->
  <defs>
    <style>
      .st0 {
        fill: #4d4dfa;
      }
    </style>
  </defs>
  <g id="Layer_11" data-name="Layer_1">
    <path class="st0" d="M245.7,351.2h34.7c18,0,32.6,14.6,32.6,32.6v123.2h53.3v-123.2c0-47.4-38.5-85.9-85.9-85.9h-34.7v53.3Z"/>
    <path class="st0" d="M473,383.7v123.2h53.3v-123.2c0-18,14.6-32.6,32.6-32.6h36.4v-53.3h-36.4c-47.4,0-85.9,38.5-85.9,85.9Z"/>
    <path class="st0" d="M588.6,145.7c-3.6-7.2-7.6-14.2-12.1-20.8l-114.5,22.6-29.6-58.5c-2-.1-22.1-.1-24.1,0l-29.6,58.5-114.5-22.6c-4.4,6.6-8.5,13.6-12.1,20.8l80.5,51.6-80.5,61.6c3.6,7.2,7.6,14.2,12.1,20.8l84.8-13.8c25.6-4.2,43.8,10.9,43.8,36.7l.9,65.9v138.4h53.3v-138.4l.9-65.9c0-25.8,18.1-41,43.8-36.7l84.8,13.8c4.4-6.6,8.5-13.6,12.1-20.8l-80.5-61.6,80.5-51.6h0ZM420.5,221.7c-31,0-56.1-10.8-56.1-24.2s25.1-24.2,56.1-24.2,56.1,10.8,56.1,24.2-25.1,24.2-56.1,24.2Z"/>
  </g>
</svg>